Format                                   : Matroska
Format version                           : Version 2
File size                                : 697 MiB
Duration                                 : 2h 4mn
Overall bit rate                         : 782 Kbps
Movie name                               : Jism-2.[2012]-1CD-DVDRip By K@rtik [EXD Exclusive]
Codec ID                                 : V_MPEG4/ISO/AVC
Duration                                 : 2h 4mn
Bit rate                                 : 653 Kbps
Width                                    : 672 pixels
Height                                   : 288 pixels
Display aspect ratio                     : 2.35:1
Frame rate                               : 29.970 fps
Stream size                              : 569 MiB (82%)
Title                                    : K@rtik
Codec ID                                 : A_AC3
Duration                                 : 2h 4mn
Bit rate mode                            : Constant
Bit rate                                 : 128 Kbps
Channel(s)                               : 2 channels
Channel positions                        : Front: L R
Sampling rate                            : 48.0 KHz
Stream size                              : 114 MiB (16%)
Title                                    : K@rtik
Language                                 : Hindi 
http://img210.imageshack.us/img210/5512/exdp.jpg 
http://img443.imageshack.us/img443/3003/jism2001.jpg 
http://img850.imageshack.us/img850/3330/69952203.png 
http://img401.imageshack.us/img401/3589/70646758.png 
http://img705.imageshack.us/img705/8051/74714110.png 
http://img694.imageshack.us/img694/7775/39469640.png 
http://img513.imageshack.us/img513/5830/55438826.png 
http://img42.imageshack.us/img42/5963/86973914.png 
http://img145.imageshack.us/img145/3061/54349771.png 
http://img687.imageshack.us/img687/6530/97280186.png 
http://img31.imageshack.us/img31/9593/43231678.png 
http://img404.imageshack.us/img404/9726/81774840.png 
http://img820.imageshack.us/img820/8165/95718899.png